<?xml version="1.0" standalone="no"?>
<!DOCTYPE svg PUBLIC "-//W3C//DTD SVG 1.1//EN" "http://www.w3.org/Graphics/SVG/1.1/DTD/svg11.dtd" >
<svg xmlns="http://www.w3.org/2000/svg">
<metadata>Generated by IcoMoon</metadata>
<defs>
<font id="xstore-icons" horiz-adv-x="1024">
<font-face units-per-em="1024" ascent="1013.9902248289345" descent="-10.009775171065494" />
<missing-glyph horiz-adv-x="1024" />
<glyph unicode="&#x20;" horiz-adv-x="10.009775171065494" d="" />
<glyph unicode="&#xe900;" glyph-name="basket" horiz-adv-x="797" d="M143.078 747.546h508.995v-495.391h-508.995v495.391zM397.573 558.070c-104.477 0-189.476 84.997-189.476 189.476s84.997 189.476 189.476 189.476c104.475 0 189.476-84.997 189.476-189.476s-84.999-189.476-189.476-189.476zM397.573 898.043c-82.987 0-150.498-67.513-150.498-150.498s67.511-150.498 150.498-150.498c82.985 0 150.498 67.511 150.498 150.498s-67.513 150.498-150.498 150.498z" />
<glyph unicode="&#xe901;" glyph-name="cart" horiz-adv-x="797" d="M412.666 343.716c0-28.73-23.29-52.018-52.018-52.018s-52.018 23.29-52.018 52.018c0 28.73 23.29 52.018 52.018 52.018s52.018-23.29 52.018-52.018zM622.578 343.716c0-28.73-23.29-52.018-52.018-52.018s-52.018 23.29-52.018 52.018c0 28.73 23.29 52.018 52.018 52.018s52.018-23.29 52.018-52.018zM755.39 788.744h-541.147l-19.387 53.274-4.523 14.663h-150.576v-44.585h118.557l136.973-376.296 4.644-14.677h340.88l15.678 44.583h-324.656l-17.515 48.107h355.28l85.795 274.931zM298.085 558.404l-67.614 185.755h464.406l-57.937-185.755h-338.86z" />
<glyph unicode="&#xe902;" glyph-name="left" horiz-adv-x="797" d="M580.459 298.743l-280.042 275.448 280.042 275.448-43.262 42.613-322.504-318.219 322.504-317.899z" />
<glyph unicode="&#xe903;" glyph-name="no_result" horiz-adv-x="797" d="M548.34 443.434c40.791 50.553 62.96 113.054 62.96 178.757 0 157.575-128.193 285.778-285.77 285.778-157.583 0-285.778-128.201-285.778-285.778 0-157.519 128.195-285.704 285.778-285.704 66.705 0 129.888 22.732 180.863 64.581l204.464-206.34 42.333 41.905-204.855 206.803zM325.535 366.266c-141.171 0-255.982 114.806-255.982 255.927 0 141.171 114.812 255.973 255.982 255.973 141.107 0 255.982-114.804 255.982-255.973 0-141.125-114.876-255.927-255.982-255.927zM416.458 547.846l-74.53 74.991 74.474 74.227-16.206 16.26-74.484-74.209-74.552 74.959-16.278-16.19 74.528-74.999-74.482-74.211 16.198-16.262 74.498 74.219 74.554-74.967z" />
<glyph unicode="&#xe904;" glyph-name="right" horiz-adv-x="797" d="M214.69 292.894l280.042 275.448-280.042 275.448 43.248 42.613 322.52-318.219-322.52-317.899z" />
<glyph unicode="&#xe905;" glyph-name="input-minus" d="M29.541 489.769c-16.244 0.014-29.533 18.44-29.537 40.948l0.002 47.792c-0.008 22.524 13.295 40.962 29.533 40.952l969.939 0.008c16.254 0 29.537-18.416 29.537-40.952v-47.804c-0.008-22.524-13.299-40.954-29.537-40.954l-969.939 0.010z" />
<glyph unicode="&#xe906;" glyph-name="input-plus" d="M29.553 507.825c-16.242 0.020-29.545 13.281-29.553 29.553l0.004 34.459c-0.016 16.242 13.283 29.553 29.545 29.553l969.899 0.012c16.242 0 29.553-13.281 29.553-29.553v-34.477c-0.016-16.24-13.281-29.553-29.553-29.553l-969.895 0.010zM467.732 1039.571c0.022 16.242 13.281 29.553 29.553 29.553l34.467-0.004c16.24 0.016 29.553-13.281 29.553-29.553l0.016-969.895c0-16.242-13.281-29.553-29.553-29.553h-34.477c-16.242 0.016-29.553 13.281-29.553 29.553l0.012 969.895z" />
<glyph unicode="&#xe907;" glyph-name="quick-2" horiz-adv-x="797" d="M670.078 327.477l-140.076 140.076c28.136 37.56 44.988 84.058 44.988 134.607 0 124.317-100.778 225.097-225.097 225.097s-225.097-100.778-225.097-225.097 100.778-225.097 225.097-225.097c50.549 0 97.050 16.881 134.607 44.988l140.076-140.076 45.501 45.501zM189.109 602.191c0 88.656 72.126 160.784 160.784 160.784s160.784-72.126 160.784-160.784c0-88.656-72.126-160.784-160.784-160.784s-160.784 72.126-160.784 160.784z" />
<glyph unicode="&#xe908;" glyph-name="like_outline" d="M703.159 831.443c85.751 0 154.353-68.603 154.353-154.353s-167.215-274.405-343.006-420.18c-175.789 150.063-343.006 338.719-343.006 420.182 0 85.751 68.601 154.353 154.353 154.353 102.9 0 188.653-128.626 188.653-128.626s81.463 128.626 188.653 128.626zM703.159 917.195c-77.175 0-145.778-38.589-188.653-98.614-42.875 60.028-111.476 98.612-188.653 98.612-132.915 0-240.102-107.189-240.102-240.102 0-188.651 428.758-531.659 428.758-531.659s428.756 343.006 428.756 531.659c0 132.917-107.191 240.102-240.102 240.102v0z" />
<glyph unicode="&#xe909;" glyph-name="cart-icon-new" d="M762.939 754.474h-64.314c0 100.329-82.606 181.928-184.118 181.928s-184.116-81.601-184.116-181.928h-64.314c0 135.777 111.444 246.242 248.429 246.242s248.431-110.439 248.431-246.242zM842.507 147.635h-655.997v655.997h655.997v-655.997zM250.822 211.949h527.371v527.371h-527.371v-527.371z" />
<glyph unicode="&#xe90a;" glyph-name="cross" horiz-adv-x="797" d="M701.185 323.978c9.281-9.281 9.281-24.452 0-33.731l-19.677-19.679c-9.279-9.279-24.46-9.279-33.731 0l-553.824 553.82c-9.279 9.279-9.279 24.458 0 33.731l19.687 19.687c9.279 9.279 24.458 9.279 33.731 0l553.814-553.83zM147.365 270.566c-9.279-9.271-24.458-9.271-33.731 0l-19.679 19.679c-9.279 9.271-9.279 24.46 0 33.731l553.82 553.83c9.281 9.279 24.452 9.279 33.731 0l19.687-19.687c9.271-9.279 9.271-24.46 0-33.731l-553.83-553.82z" />
<glyph unicode="&#xe90b;" glyph-name="search" horiz-adv-x="797" d="M684.108 324.31l-151.85 151.842c27.805 39.008 44.225 86.663 44.225 138.102 0 131.532-107.011 238.545-238.548 238.545s-238.545-107.009-238.545-238.545 107.011-238.545 238.545-238.545c51.438 0 99.092 16.422 138.102 44.225l151.85-151.85c7.755-7.769 17.937-11.648 28.108-11.648s20.358 3.88 28.108 11.642c15.527 15.527 15.527 40.703 0 56.233zM337.939 455.223c-87.835 0-159.029 71.197-159.029 159.029s71.197 159.029 159.029 159.029 159.029-71.197 159.029-159.029-71.197-159.031-159.029-159.031z" />
<glyph unicode="&#xe90c;" glyph-name="cart-new" d="M419.231 235.247c-41 0-74.087 33.087-74.087 74.085s33.087 74.085 74.087 74.085c40.997 0 74.085-33.087 74.085-74.085 0.72-40.999-33.087-74.085-74.085-74.085zM419.231 340.008c-19.422 0-30.271-11.973-30.271-30.675 0-19.422 11.568-29.78 30.271-29.78 19.42 0 29.969 11.079 29.969 29.78 0 19.422-10.548 30.675-29.969 30.675zM673.857 235.247c-40.999 0-74.085 33.087-74.085 74.085s33.087 74.085 74.085 74.085c41 0 74.085-33.087 74.085-74.085s-33.085-74.085-74.085-74.085zM673.857 340.008c-19.42 0-30.271-11.973-30.271-30.675 0-19.422 11.568-29.78 30.271-29.78s29.969 11.079 29.969 29.78c0 19.422-11.268 30.675-29.969 30.675zM729.241 440.963h-379.063l-105.016 340.148h-76.242v49.704h120.525l30.21-100.699h496.622l-87.034-289.152zM395.18 491.36h295.156l63.298 189.57h-421.752l63.299-189.57z" />
<glyph unicode="&#xe90d;" glyph-name="cart3" horiz-adv-x="794" d="M241.227 320.552c-33.186 0-60.091-26.902-60.091-60.091s26.904-60.093 60.091-60.093c33.186 0 60.091 26.902 60.091 60.093 0.001 33.185-26.901 60.091-60.091 60.091zM241.227 245.439c-8.296 0-15.024 6.729-15.024 15.025s6.727 15.024 15.024 15.024 15.024-6.729 15.024-15.024c0-8.297-6.726-15.025-15.024-15.025zM541.68 320.552c-33.186 0-60.091-26.902-60.091-60.091s26.902-60.093 60.091-60.093c33.187 0 60.093 26.902 60.093 60.093 0 33.185-26.902 60.091-60.093 60.091zM541.68 245.439c-8.295 0-15.024 6.729-15.024 15.025s6.729 15.024 15.024 15.024c8.296 0 15.025-6.729 15.025-15.024 0-8.297-6.727-15.025-15.025-15.025zM188.647 350.596h317.581c45.671 0 82.023 37.557 97.048 97.646v0l75.716 298.501c3.964 13.716 10.657 26.491 19.678 37.558 7.718 10.168 19.549 16.387 32.299 16.977v45.069c-45.069 0-75.565-29.371-92.164-77.518l-470.137-3.756c-9.389-1.578-38.157-6.234-52.579-28.618-8.447-14.099-10.156-31.231-4.658-46.722l79.546-241.491h365.278c-6.609-22.535-21.708-52.579-49.802-52.579h-317.583v-45.068h-0.225zM568.197 493.314h-346.199l-67.602 209.566c-1.114 3.056-1.114 6.406 0 9.463 0.752 1.202 4.581 5.333 21.258 8.113l450.682 1.052-58.138-228.194z" />
<glyph unicode="&#xe90e;" glyph-name="icon_v3" horiz-adv-x="792" d="M256.466 534.497c21.176-2.996 36.158-16.379 36.158-38.155 0-26.567-20.378-45.148-52.54-45.148-18.578 0-37.956 6.592-50.54 16.383l12.784 24.97c10.388-10.586 22.774-16.183 35.359-16.183 15.383 0 24.173 7.391 23.971 19.581 0 12.586-8.589 18.976-24.172 18.976h-21.376v17.58l32.763 34.161h-52.54v25.571h89.897v-18.78l-36.557-38.154 6.795-0.803zM415.677 582.641l-11.985-23.173c-8.39 5.793-19.178 8.988-29.965 8.988-23.971 0-35.36-15.781-34.759-40.553 6.794 10.188 18.777 16.383 34.959 16.383 27.767 0 44.946-17.981 44.946-45.149 0-29.565-20.177-47.944-51.141-47.944-36.758 0-59.331 26.172-59.331 69.117 0 44.549 24.771 73.516 63.326 73.516 14.986 0 32.366-4.392 43.951-11.187zM342.762 498.738c-0.202-10.788 7.39-21.175 23.571-21.175 14.182 0 23.172 7.791 23.172 21.775 0 12.985-8.19 20.775-22.373 20.775-15.581-0.001-24.572-9.388-24.37-21.376zM555.91 522.709c0-45.747-21.775-71.115-60.93-71.115-39.555 0-61.129 25.37-61.129 71.115 0 45.547 21.575 70.719 61.129 70.719 39.154 0 60.93-25.17 60.93-70.719zM466.213 522.709c0-32.96 8.987-46.944 28.767-46.944 19.577 0 28.567 13.985 28.567 46.944 0 32.761-8.99 46.546-28.567 46.546-19.778 0.001-28.767-13.783-28.767-46.546zM604.453 571.751c0-12.55-10.064-22.18-23.36-22.18-13.294 0-23.36 9.569-23.36 22.18 0 12.674 10.065 22.055 23.36 22.055s23.36-9.444 23.36-22.055zM567.798 571.751c0-7.642 6.15-13.606 13.419-13.606 7.266 0 13.17 5.963 13.17 13.606 0 7.64-5.904 13.481-13.17 13.481-7.331 0-13.419-5.84-13.419-13.481zM160.716 287.16c129.729-129.698 340.761-129.682 470.458-0.001 62.839 62.825 97.428 146.363 97.428 235.229 0 88.869-34.604 172.404-97.428 235.207-6.423 6.44-13.149 12.53-20.047 18.407h101.634v31.682h-158.407v-158.41h31.681v106.246c7.859-6.44 15.533-13.117 22.739-20.324 56.839-56.828 88.146-132.412 88.146-212.816 0-80.392-31.308-155.976-88.146-212.813-117.35-117.324-308.278-117.35-425.66 0-117.333 117.35-117.333 308.288 0 425.638 67.601 67.601 160.716 98.633 255.433 85.145l4.461 31.373c-16.056 2.289-32.087 3.406-47.958 3.406-87.65 0-171.099-34.28-234.335-97.525-129.699-129.698-129.699-340.73-0.001-470.443z" />
<glyph unicode="&#xe90f;" glyph-name="icon_v2" horiz-adv-x="792" d="M396.023 201.24c177.293 0 321.271 143.978 321.271 321.271s-143.978 321.271-321.271 321.271c-13.090 0-23.797-10.709-23.797-23.799s10.708-23.799 23.797-23.799c151.116 0 273.674-122.558 273.674-273.674 0-151.118-122.559-273.674-273.674-273.674s-273.674 122.557-273.674 273.674c0 69.014 24.987 134.459 71.393 184.433v-65.444c0-13.090 10.708-23.799 23.799-23.799 13.088 0 23.797 10.709 23.797 23.799v118.988c0 0 0 0 0 1.19v1.188c0 1.189 0 2.38 0 3.57v1.19c0 1.189-1.189 2.378-1.189 3.569v1.189c0 1.189-1.19 2.38-2.38 3.57v0c0 0 0 0-1.189 1.188-1.19 1.19-1.19 1.19-2.38 2.38l-1.188 1.19c-1.19 0-1.19 1.189-2.38 1.189l-1.19 1.189c-1.189 0-1.189 1.19-2.378 1.19s-1.19 0-2.38 0-1.189 0-2.38 1.189c-1.189 0-1.189 0-2.38 0h-121.367c-13.088 0-23.799-10.708-23.799-23.797s10.709-23.799 23.799-23.799h58.303c-52.358-59.491-82.106-134.453-82.106-215.366 0-177.293 143.978-321.271 321.271-321.271zM289.862 544.836c18.632-2.637 31.815-14.413 31.815-33.573 0-23.377-17.93-39.725-46.228-39.725-16.347 0-33.398 5.801-44.471 14.415l11.249 21.972c9.141-9.317 20.038-14.239 31.112-14.239 13.534 0 21.269 6.503 21.093 17.227 0 11.075-7.558 16.697-21.269 16.697h-18.808v15.468l28.827 30.059h-46.228v22.5h79.1v-16.524l-32.167-33.573 5.977-0.706zM429.951 587.197l-10.546-20.39c-7.382 5.097-16.873 7.909-26.367 7.909-21.093 0-31.112-13.886-30.585-35.682 5.977 8.965 16.523 14.415 30.76 14.415 24.432 0 39.55-15.82 39.55-39.725 0-26.014-17.753-42.187-44.999-42.187-32.344 0-52.205 23.027-52.205 60.818 0 39.198 21.795 64.685 55.72 64.685 13.184 0.001 28.478-3.865 38.672-9.843zM365.792 513.372c-0.176-9.491 6.503-18.631 20.74-18.631 12.48 0 20.389 6.856 20.389 19.16 0 11.425-7.206 18.281-19.686 18.281-13.709 0-21.619-8.261-21.444-18.808zM553.341 534.465c0-40.252-19.161-62.575-53.612-62.575-34.803 0-53.788 22.324-53.788 62.575 0 40.077 18.985 62.225 53.788 62.225 34.452 0 53.612-22.148 53.612-62.225zM474.417 534.465c0-29.001 7.909-41.306 25.312-41.306 17.226 0 25.136 12.305 25.136 41.306 0 28.827-7.91 40.956-25.136 40.956-17.402 0.001-25.312-12.128-25.312-40.956zM608.029 575.315c0-12.55-10.065-22.18-23.36-22.18s-23.36 9.568-23.36 22.18c0 12.674 10.065 22.055 23.36 22.055s23.36-9.444 23.36-22.055zM571.373 575.315c0-7.642 6.15-13.607 13.419-13.607 7.267 0 13.17 5.964 13.17 13.607 0 7.64-5.903 13.481-13.17 13.481-7.331 0-13.419-5.841-13.419-13.481z" />
<glyph unicode="&#xe910;" glyph-name="icon_v1" horiz-adv-x="792" d="M271.22 548.021c21.294-3.013 36.36-16.472 36.36-38.367 0-26.716-20.49-45.397-52.831-45.397-18.681 0-38.165 6.628-50.822 16.472l12.857 25.109c10.445-10.646 22.899-16.269 35.556-16.269 15.467 0 24.307 7.431 24.105 19.684 0 12.656-8.637 19.085-24.307 19.085h-21.494v17.676l32.944 34.351h-52.831v25.712h90.394v-18.882l-36.76-38.367 6.83-0.804zM431.317 596.433l-12.053-23.302c-8.437 5.825-19.284 9.040-30.131 9.040-24.105 0-35.556-15.869-34.952-40.778 6.83 10.245 18.882 16.472 35.154 16.472 27.922 0 45.196-18.079 45.196-45.399 0-29.729-20.288-48.21-51.423-48.21-36.961 0-59.659 26.315-59.659 69.503 0 44.795 24.908 73.922 63.677 73.922 15.066 0 32.543-4.419 44.193-11.249zM357.998 512.066c-0.2-10.848 7.432-21.294 23.703-21.294 14.262 0 23.301 7.835 23.301 21.895 0 13.057-8.235 20.892-22.497 20.892-15.667-0.001-24.707-9.442-24.507-21.494zM572.332 536.171c0-46.001-21.895-71.512-61.267-71.512-39.772 0-61.468 25.511-61.468 71.512 0 45.8 21.696 71.109 61.468 71.109 39.371 0 61.267-25.311 61.267-71.109zM482.14 536.171c0-33.144 9.039-47.206 28.926-47.206 19.686 0 28.725 14.060 28.725 47.206 0 32.944-9.039 46.805-28.725 46.805-19.887-0.001-28.926-13.861-28.926-46.805zM634.832 582.854c0-14.341-11.501-25.344-26.694-25.344s-26.693 10.934-26.693 25.344c0 14.482 11.5 25.204 26.693 25.204s26.694-10.791 26.694-25.204zM592.945 582.854c0-8.732 7.030-15.547 15.336-15.547s15.050 6.816 15.050 15.547c0 8.734-6.744 15.406-15.050 15.406-8.378 0-15.336-6.673-15.336-15.406zM396.025 885.731c-195.148 0-353.947-158.799-353.947-353.947-0.217-15.432 12.116-28.12 27.55-28.338 15.431-0.22 28.118 12.115 28.338 27.548 0.003 0.264 0.003 0.527 0 0.79 0 164.945 133.114 298.059 298.059 298.059s298.059-133.114 298.059-298.059c0-164.945-133.114-298.059-298.059-298.059-61.664 0-123.553 24.495-173.77 60.833l64.036 4.66c15.433 0.562 27.488 13.529 26.925 28.961-0.565 15.432-13.531 27.486-28.961 26.924-0.684-0.072-1.362-0.169-2.040-0.292l-130.4-9.314c-15.396-1.101-26.982-14.473-25.88-29.867 0.093-1.311 0.279-2.612 0.557-3.896l27.943-130.401c3.295-15.111 18.217-24.689 33.327-21.394 15.113 3.296 24.691 18.217 21.394 33.329v0l-10.771 49.775c56.645-39.025 125.267-65.2 197.64-65.2 195.148 0 353.945 158.796 353.945 353.945 0 195.147-158.797 353.945-353.945 353.945z" />
<glyph unicode="&#xe911;" glyph-name="transfer" d="M1007.912 233.574c0 14.248-11.524 25.772-25.772 25.772h-877.285l154.212 154.212c10.057 10.057 10.057 26.191 0 36.248s-26.191 10.057-36.248 0l-198.002-198.002c-10.057-10.057-10.057-26.191 0-36.248l198.002-198.002c5.029-5.029 11.524-7.543 18.229-7.543s13.2 2.514 18.229 7.543c10.057 10.057 10.057 26.191 0 36.248l-154.212 154.212h877.495c13.829 0 25.353 11.314 25.353 25.562zM1000.369 829.675l-198.002 197.792c-10.057 10.057-26.191 10.057-36.248 0s-10.057-26.191 0-36.248l154.212-154.212h-877.495c-14.248 0-25.772-11.524-25.772-25.772s11.524-25.772 25.772-25.772h877.495l-154.212-153.792c-10.057-10.057-10.057-26.191 0-36.248 5.029-5.029 11.524-7.543 18.229-7.543s13.2 2.514 18.229 7.543l198.002 198.002c9.848 9.848 9.848 26.191-0.209 36.248z" />
<glyph unicode="&#xe912;" glyph-name="circular-arrow" d="M512.485 55.125c-199.601 0-377.231 126.737-442.060 315.383-4.816 13.935 2.619 29.163 16.583 33.919 13.905 4.816 29.133-2.589 33.919-16.583 57.424-167.066 214.8-279.267 391.587-279.267 228.283 0 413.979 185.696 413.979 413.949 0 14.747 11.979 26.756 26.726 26.756s26.696-11.979 26.696-26.756c-0.030-257.718-209.683-467.4-467.43-467.4zM71.81 495.799c-14.717 0-26.696 11.919-26.696 26.696 0 257.688 209.683 467.37 467.37 467.37 199.541 0 377.171-126.677 442.060-315.262 4.786-13.935-2.619-29.163-16.583-33.979-13.995-4.756-29.163 2.649-33.949 16.583-57.454 167.066-214.8 279.267-391.557 279.267-228.253 0-413.979-185.756-413.979-414.009 0.030-14.717-11.919-26.666-26.666-26.666zM928.24 633.763c-2.619 0-5.327 0.421-7.976 1.234l-185.485 58.087c-14.055 4.424-21.88 19.412-17.486 33.498 4.394 14.055 19.442 21.88 33.438 17.516l161.89-50.743 60.825 152.47c5.477 13.694 21.038 20.406 34.702 14.868 13.694-5.477 20.406-20.977 14.928-34.671l-70.065-175.463c-4.123-10.323-14.116-16.794-24.769-16.794zM26.696 182.313c-3.28 0-6.651 0.632-9.872 1.956-13.694 5.477-20.376 20.977-14.898 34.671l70.034 175.463c5.177 13.002 19.442 19.803 32.775 15.59l185.485-58.087c14.085-4.394 21.88-19.382 17.486-33.438-4.394-14.116-19.412-21.94-33.438-17.516l-161.86 50.682-60.885-152.47c-4.183-10.443-14.236-16.854-24.829-16.854z" />
<glyph unicode="&#xe913;" glyph-name="synchronization-arrows" d="M512.5 895.238v139.772l-186.364-186.364 186.364-186.364v139.772c153.75 0 279.546-125.796 279.546-279.546 0-46.59-13.978-93.182-32.614-130.454l69.886-69.886c32.614 60.568 55.91 125.796 55.91 200.341 0 205-167.728 372.728-372.728 372.728zM512.5 242.964c-153.75 0-279.546 125.796-279.546 279.546 0 46.59 13.978 93.182 32.614 130.454l-69.886 69.886c-32.614-60.568-55.91-125.796-55.91-200.341 0-205 167.728-372.728 372.728-372.728v-139.772l186.364 186.364-186.364 186.364v-139.772z" />
<glyph unicode="&#xe914;" glyph-name="reload" d="M234.75 831.75c151.329 136.887 377.8 138.98 531.222 14.024l-121.608-4.604c-15.698-0.628-27.838-13.605-27.21-29.303 0.628-15.28 13.186-27.21 28.257-27.21 0.418 0 0.628 0 1.047 0l186.702 6.907c15.28 0.628 27.21 12.977 27.21 28.257v2.093c0 0.418 0 0.628 0 1.047v0.209l-6.907 184.609c-0.628 15.698-13.814 27.838-29.303 27.21-15.698-0.628-27.838-13.605-27.21-29.303l4.395-115.747c-75.978 62.165-169.539 98.165-269.588 103.189-123.91 6.279-243.005-36.21-334.892-119.515-126.421-114.491-180.005-288.635-139.818-454.406 3.14-12.977 14.651-21.559 27.419-21.559 2.302 0 4.395 0.209 6.698 0.837 15.070 3.768 24.489 19.047 20.721 34.117-35.163 145.678 11.721 298.682 122.863 399.149zM967.954 625.792c-3.768 15.070-19.047 24.489-34.117 20.721s-24.489-19.047-20.721-34.117c35.373-145.678-11.721-298.682-122.863-399.149-78.071-70.537-176.028-105.282-273.565-105.282-93.142 0-186.074 31.606-261.006 93.979l123.073 11.093c15.489 1.465 27 15.070 25.536 30.768s-15.070 27-30.768 25.536l-186.074-16.744c-15.489-1.465-27-15.070-25.536-30.768l16.744-186.074c1.256-14.651 13.605-25.745 28.047-25.745 0.837 0 1.675 0 2.511 0.209 15.489 1.465 27 15.070 25.536 30.768l-10.047 113.236c75.978-61.536 169.12-97.328 268.541-102.351 7.954-0.418 15.908-0.628 23.652-0.628 115.329 0 225.006 42.28 311.24 120.142 126.421 114.491 180.005 288.426 139.818 454.406z" />
<glyph unicode="&#xe915;" glyph-name="refresh" d="M167.666 781.151c75.141 107.223 199.59 173.729 332.732 173.729 223.679 0 405.659-181.977 405.659-405.659h80.131c0 267.867-217.924 485.79-485.79 485.79-93.587 0-184.464-26.681-262.805-77.16-49.638-31.983-92.704-72.503-127.491-119.409l-104.544 104.042v-302.801h304.256l-142.15 141.468zM1019.443 405.338h-304.256l142.15-141.471c-75.141-107.221-199.59-173.729-332.732-173.729-223.682 0-405.659 181.977-405.659 405.659h-80.131c0-267.867 217.924-485.79 485.79-485.79 93.587 0 184.466 26.681 262.805 77.16 49.638 31.985 92.704 72.505 127.491 119.411l104.541-104.042v302.801z" />
<glyph unicode="&#xe916;" glyph-name="cart_icon" d="M955.743 575.392c17.498 0 32.439-6.191 44.82-18.572s18.572-27.322 18.572-44.821c0-17.498-6.19-32.438-18.572-44.82s-27.322-18.571-44.82-18.571h-7.429l-56.954-327.855c-2.641-15.188-9.905-27.734-21.791-37.639s-25.422-14.858-40.61-14.858h-633.919c-15.187 0-28.725 4.953-40.61 14.858s-19.15 22.451-21.791 37.639l-56.953 327.855h-7.429c-17.498 0-32.439 6.19-44.82 18.571s-18.572 27.322-18.572 44.82c0 17.499 6.191 32.439 18.572 44.821s27.322 18.572 44.82 18.572h887.487zM245.061 179.193c8.584 0.66 15.765 4.374 21.543 11.143s8.337 14.445 7.677 23.030l-15.848 206.023c-0.66 8.584-4.374 15.766-11.143 21.543-6.768 5.778-14.445 8.337-23.029 7.677-8.583-0.66-15.765-4.375-21.543-11.144s-8.337-14.445-7.677-23.029l15.847-206.023c0.661-8.254 4.045-15.188 10.153-20.801s13.289-8.419 21.543-8.419h2.476zM448.608 210.889v206.023c0 8.584-3.137 16.013-9.41 22.286s-13.702 9.41-22.286 9.41-16.013-3.137-22.286-9.41-9.41-13.702-9.41-22.286v-206.023c0-8.584 3.136-16.013 9.41-22.286s13.702-9.41 22.286-9.41 16.013 3.137 22.286 9.41c6.273 6.273 9.41 13.702 9.41 22.286zM638.783 210.889v206.023c0 8.584-3.136 16.013-9.409 22.286s-13.702 9.41-22.286 9.41-16.013-3.137-22.287-9.41c-6.273-6.274-9.409-13.702-9.409-22.286v-206.023c0-8.584 3.136-16.013 9.409-22.286s13.702-9.41 22.287-9.41 16.013 3.137 22.286 9.41c6.273 6.273 9.409 13.702 9.409 22.286zM813.111 208.413l15.848 206.023c0.66 8.584-1.898 16.261-7.676 23.029s-12.959 10.484-21.543 11.144-16.261-1.899-23.029-7.677c-6.769-5.778-10.483-12.959-11.143-21.543l-15.848-206.023c-0.66-8.584 1.898-16.261 7.677-23.030s12.959-10.483 21.543-11.143h2.477c8.254 0 15.435 2.807 21.543 8.419 6.109 5.613 9.493 12.546 10.153 20.801zM240.604 811.13l-46.058-204.042h-65.373l50.020 218.405c6.274 29.055 20.966 52.745 44.078 71.069s49.525 27.486 79.239 27.486h82.707c0 8.585 3.136 16.013 9.41 22.286s13.702 9.41 22.286 9.41h190.176c8.584 0 16.013-3.137 22.286-9.41s9.409-13.702 9.409-22.286h82.707c29.715 0 56.128-9.162 79.24-27.486s37.803-42.014 44.077-71.069l50.020-218.405h-65.373l-46.058 204.042c-3.631 14.527-11.143 26.414-22.534 35.658s-24.515 13.867-39.372 13.867h-82.707c0-8.584-3.136-16.013-9.409-22.286s-13.702-9.41-22.286-9.41h-190.176c-8.584 0-16.013 3.137-22.286 9.41s-9.41 13.702-9.41 22.286h-82.707c-14.857 0-27.982-4.622-39.372-13.867s-18.902-21.131-22.534-35.658z" />
</font>
</defs>
</svg>
